<svg xmlns="http://www.w3.org/2000/svg" viewBox="0 0 32 32" aria-hidden="true" role="presentation" focusable="false" style="display: block; height: 24px; width: 24px; fill: currentcolor;"><path d="M26 1a5 5 0 0 1 5 4.78v10.9a5 5 0 0 1-4.78 5H26a5 5 0 0 1-4.78 5h-4l-3.72 4.36-3.72-4.36H6a5 5 0 0 1-4.98-4.56L1 21.9 1 21.68V11a5 5 0 0 1 4.78-5H6a5 5 0 0 1 4.78-5H26zm-5 7H6a3 3 0 0 0-3 2.82v10.86a3 3 0 0 0 2.82 3h4.88l2.8 3.28 2.8-3.28H21a3 3 0 0 0 3-2.82V11a3 3 0 0 0-3-3zm-1 10v2H6v-2h14zm6-15H11a3 3 0 0 0-3 2.82V6h13a5 5 0 0 1 5 4.78v8.9a3 3 0 0 0 3-2.82V6a3 3 0 0 0-2.82-3H26zM15 13v2H6v-2h9z"></path></svg>
